<svg width="80" height="80" viewBox="0 0 80 80" fill="none" xmlns="http://www.w3.org/2000/svg">
<rect width="80" height="80" rx="10" fill="#F7F7F7"/>
<path d="M49 10C40.87 10 33.85 14.62 30.34 21.34C26.5 23.35 23.32 26.5 21.34 30.34C14.62 33.85 10 40.87 10 49C10 60.61 19.39 70 31 70C39.13 70 46.15 65.38 49.66 58.66C53.5 56.65 56.68 53.5 58.66 49.66C65.38 46.15 70 39.13 70 31C70 19.39 60.61 10 49 10ZM31 64C22.72 64 16 57.28 16 49C16 45.64 17.11 42.52 19 40C19 51.61 28.39 61 40 61C37.48 62.89 34.36 64 31 64ZM40 55C31.72 55 25 48.28 25 40C25 36.64 26.11 33.52 28 31C28 42.58 37.39 51.97 49 52C46.48 53.89 43.36 55 40 55ZM54.1 45.1C52.51 45.67 50.8 46 49 46C40.72 46 34 39.28 34 31C34 29.2 34.33 27.49 34.9 25.9C36.49 25.33 38.2 25 40 25C48.28 25 55 31.72 55 40C55 41.8 54.67 43.51 54.1 45.1ZM61 40C61 28.42 51.61 19.03 40 19C42.52 17.11 45.61 16 49 16C57.28 16 64 22.72 64 31C64 34.36 62.89 37.48 61 40Z" fill="black"/>
</svg>
